<svg width="443" height="171" viewBox="0 0 443 171" fill="none" xmlns="http://www.w3.org/2000/svg">
<path d="M1 167.515C1 168.887 2.11235 170 3.48451 170H28.4717C29.8439 170 30.9562 168.887 30.9562 167.515V103.451H42.6155C55.0683 103.451 65.5222 99.3953 72.8678 92.0299C80.213 84.6654 84.231 74.2123 84.231 61.833V42.618C84.231 30.2385 80.213 19.7857 72.8678 12.4212C65.5222 5.05575 55.0683 1 42.6155 1H3.48451C2.11235 1 1 2.11271 1 3.48529V167.515ZM143.908 167.872C144.086 169.094 145.133 170 146.367 170H171.189C171.919 170 172.612 169.679 173.084 169.122C173.556 168.565 173.759 167.829 173.64 167.109L146.476 3.07913C146.278 1.87964 145.241 1 144.025 1H110.773C109.558 1 108.521 1.87964 108.322 3.07913L81.1586 167.109C81.0394 167.829 81.2426 168.565 81.7147 169.122C82.1872 169.679 82.8799 170 83.6099 170H108.9C110.134 170 111.181 169.094 111.359 167.872L127.633 55.9066L143.908 167.872ZM235.809 1C234.575 1 233.528 1.90608 233.351 3.12769L217.076 115.093L200.801 3.12769C200.623 1.90608 199.576 1 198.342 1H173.052C172.322 1 171.629 1.32106 171.157 1.87793C170.685 2.4348 170.482 3.17114 170.601 3.89144L197.765 167.921C197.963 169.12 199 170 200.216 170H233.467C234.683 170 235.72 169.12 235.919 167.921L263.082 3.89144C263.201 3.17114 262.998 2.4348 262.526 1.87793C262.054 1.32106 261.361 1 260.631 1H235.809ZM276.78 25.8529C276.78 27.2255 277.893 28.3382 279.265 28.3382H348.21C349.582 28.3382 350.694 27.2255 350.694 25.8529V3.48529C350.694 2.11271 349.582 1 348.21 1H279.265C277.893 1 276.78 2.11271 276.78 3.48529V25.8529ZM276.78 96.6838C276.78 98.0562 277.893 99.1691 279.265 99.1691H348.21C349.582 99.1691 350.694 98.0562 350.694 96.6838V74.3162C350.694 72.9438 349.582 71.8309 348.21 71.8309H279.265C277.893 71.8309 276.78 72.9438 276.78 74.3162V96.6838ZM276.78 167.515C276.78 168.887 277.893 170 279.265 170H348.21C349.582 170 350.694 168.887 350.694 167.515V145.147C350.694 143.775 349.582 142.662 348.21 142.662H279.265C277.893 142.662 276.78 143.775 276.78 145.147V167.515ZM368.086 167.515C368.086 168.887 369.198 170 370.57 170H439.516C440.887 170 442 168.887 442 167.515V144.082C442 142.709 440.887 141.597 439.516 141.597H397.828V3.48529C397.828 2.11271 396.716 1 395.344 1H370.57C369.198 1 368.086 2.11271 368.086 3.48529V167.515ZM41.4368 75.0474H30.9562V29.4034H41.4368C45.7911 29.4034 48.9266 30.6616 50.9709 32.6938C53.0132 34.7239 54.2748 37.8327 54.2748 42.1494V62.3018C54.2748 66.6182 53.0132 69.7268 50.9709 71.7573C48.9266 73.7893 45.7911 75.0474 41.4368 75.0474Z" fill="white" stroke="white" stroke-width="2" stroke-linejoin="round"/>
</svg>
