<svg width="822" height="318" viewBox="0 0 822 318" fill="none" xmlns="http://www.w3.org/2000/svg">
<path d="M1.40039 311.395C1.40039 313.945 3.46669 316.013 6.0156 316.013H52.4318C54.9808 316.013 57.047 313.945 57.047 311.395V192.355H78.7052C101.838 192.355 121.257 184.819 134.902 171.133C148.546 157.449 156.01 138.025 156.01 115.023V79.3187C156.01 56.3157 148.546 36.8929 134.902 23.2085C121.257 9.52251 101.838 1.98633 78.7052 1.98633H6.0156C3.46669 1.98633 1.40039 4.0539 1.40039 6.60437V311.395ZM266.866 312.059C267.196 314.329 269.141 316.013 271.434 316.013H317.542C318.898 316.013 320.186 315.416 321.063 314.382C321.94 313.347 322.317 311.979 322.096 310.64L271.637 5.84966C271.267 3.62083 269.341 1.98633 267.083 1.98633H205.315C203.057 1.98633 201.131 3.62083 200.762 5.84966L150.303 310.64C150.081 311.979 150.459 313.347 151.336 314.382C152.214 315.416 153.5 316.013 154.856 316.013H201.835C204.127 316.013 206.072 314.329 206.403 312.059L236.634 104.011L266.866 312.059ZM437.581 1.98633C435.288 1.98633 433.344 3.66995 433.014 5.93989L402.782 213.988L372.55 5.93989C372.22 3.66995 370.275 1.98633 367.983 1.98633H321.004C319.648 1.98633 318.36 2.5829 317.483 3.61765C316.606 4.6524 316.229 6.02063 316.45 7.35905L366.909 312.15C367.279 314.378 369.205 316.013 371.463 316.013H433.231C435.489 316.013 437.415 314.378 437.784 312.15L488.243 7.35905C488.465 6.02063 488.087 4.6524 487.21 3.61765C486.334 2.5829 485.046 1.98633 483.69 1.98633H437.581ZM513.689 48.1667C513.689 50.7172 515.756 52.7848 518.304 52.7848H646.376C648.925 52.7848 650.991 50.7172 650.991 48.1667V6.60437C650.991 4.0539 648.925 1.98633 646.376 1.98633H518.304C515.756 1.98633 513.689 4.0539 513.689 6.60437V48.1667ZM513.689 179.781C513.689 182.331 515.756 184.399 518.304 184.399H646.376C648.925 184.399 650.991 182.331 650.991 179.781V138.218C650.991 135.668 648.925 133.6 646.376 133.6H518.304C515.756 133.6 513.689 135.668 513.689 138.218V179.781ZM513.689 311.395C513.689 313.945 515.756 316.013 518.304 316.013H646.376C648.925 316.013 650.991 313.945 650.991 311.395V269.833C650.991 267.283 648.925 265.215 646.376 265.215H518.304C515.756 265.215 513.689 267.283 513.689 269.833V311.395ZM683.298 311.395C683.298 313.945 685.365 316.013 687.913 316.013H815.985C818.534 316.013 820.6 313.945 820.6 311.395V267.853C820.6 265.303 818.534 263.235 815.985 263.235H738.548V6.60437C738.548 4.0539 736.481 1.98633 733.932 1.98633H687.913C685.365 1.98633 683.298 4.0539 683.298 6.60437V311.395ZM76.5157 139.577H57.047V54.764H76.5157C84.6042 54.764 90.4287 57.102 94.2261 60.8781C98.0198 64.6503 100.363 70.4269 100.363 78.4479V115.894C100.363 123.915 98.0198 129.691 94.2261 133.464C90.4287 137.239 84.6042 139.577 76.5157 139.577Z" fill="#E63D41" stroke="#E63D41" stroke-width="2" stroke-linejoin="round"/>
</svg>
